<svg width="20" height="21" viewBox="0 0 20 21" fill="white" xmlns="http://www.w3.org/2000/svg">
    <path fill-rule="evenodd" clip-rule="evenodd"
        d="M10.6249 3.8335C10.6249 3.48832 10.3451 3.2085 9.99992 3.2085C9.65474 3.2085 9.37492 3.48832 9.37492 3.8335V9.87516H3.33325C2.98807 9.87516 2.70825 10.155 2.70825 10.5002C2.70825 10.8453 2.98807 11.1252 3.33325 11.1252H9.37492V17.1668C9.37492 17.512 9.65474 17.7918 9.99992 17.7918C10.3451 17.7918 10.6249 17.512 10.6249 17.1668V11.1252H16.6666C17.0118 11.1252 17.2916 10.8453 17.2916 10.5002C17.2916 10.155 17.0118 9.87516 16.6666 9.87516H10.6249V3.8335Z" />
</svg>