<svg width="20" height="20" viewBox="0 0 20 20" fill="#4F5052" xmlns="http://www.w3.org/2000/svg">
    <path fill-rule="evenodd" clip-rule="evenodd"
        d="M6.94477 11.5289C5.93041 11.0444 5.05077 10.3723 4.32944 9.69267L2.95312 11.2339C2.84447 11.3556 2.7016 11.4173 2.55872 11.4173H2.55793C2.41504 11.4173 2.27218 11.3564 2.16353 11.2339C1.94549 10.9897 1.94549 10.594 2.16353 10.3498L3.50638 8.84605C2.64027 7.87625 2.14385 7.05605 2.09397 6.97193C1.92281 6.68444 1.99195 6.2969 2.24869 6.10524C2.50542 5.91357 2.85149 5.99108 3.02265 6.27858C3.05093 6.32524 5.89363 11.0003 9.99995 11.0003C14.1063 11.0003 16.949 6.32526 16.9773 6.27776C17.1485 5.9911 17.4952 5.91357 17.7512 6.10524C18.0072 6.2969 18.0764 6.68445 17.906 6.97112C17.8561 7.05525 17.3596 7.87565 16.4932 8.84561L17.8365 10.3498C18.0545 10.594 18.0545 10.9897 17.8365 11.2339C17.7278 11.3556 17.585 11.4173 17.4421 11.4173H17.4413C17.2984 11.4173 17.1555 11.3564 17.0469 11.2339L15.6701 9.69219C14.9488 10.3718 14.0691 11.0438 13.0548 11.5283L13.8272 12.9699C13.9857 13.2658 13.9001 13.6499 13.6359 13.8274C13.5459 13.8874 13.4469 13.9166 13.3494 13.9166C13.1597 13.9166 12.9751 13.8083 12.8702 13.6133L11.9785 11.9491C11.3577 12.1386 10.6968 12.2494 9.99995 12.2494V12.2503C9.30295 12.2503 8.64191 12.1394 8.02103 11.9498L7.12969 13.6133C7.02476 13.8083 6.84018 13.9166 6.65041 13.9166C6.55293 13.9166 6.45398 13.8883 6.36394 13.8274C6.09976 13.6499 6.01416 13.2658 6.17266 12.9699L6.94477 11.5289Z" />
</svg>