<svg width="172" height="171" viewBox="0 0 172 171" fill="white" xmlns="http://www.w3.org/2000/svg">
    <g opacity="0.05">
        <path d="M90.4393 45.2571L108.054 0H98.7585L85.5923 35.1289L72.4924 0H63.4464L81.0567 45.2571H90.4393Z" />
        <path d="M45.2571 80.9261L0 63.2302V72.5706L35.1289 85.7967L0 98.9642V108.054L45.2571 90.3542V80.9261Z" />
        <path
            d="M81.0551 125.594L63.4447 170.852H72.74L85.9021 135.719L99.0061 170.852H108.052L90.4376 125.594H81.0551Z" />
        <path
            d="M126.026 90.3542L171.5 108.054V98.7138L136.199 85.4836L171.5 72.3202V63.2302L126.026 80.9261V90.3542Z" />
        <path
            d="M117.505 60.414L161.973 40.7839L155.395 34.178L121.24 49.781L136.818 15.5203L130.419 9.09375L110.869 53.7496L117.505 60.414Z" />
        <path
            d="M60.4135 53.7496L40.785 9.09375L34.1796 15.6955L49.7814 50.0022L15.5234 34.3574L9.09323 40.7839L53.7496 60.414L60.4135 53.7496Z" />
        <path
            d="M53.9954 110.437L9.52798 129.987L16.1019 136.56L50.2638 121.029L34.6851 155.142L41.0845 161.541L60.6317 117.073L53.9954 110.437Z" />
        <path
            d="M110.869 117.505L130.419 161.972L136.992 155.398L121.46 121.236L155.574 136.815L161.973 130.416L117.505 110.868L110.869 117.505Z" />
    </g>
</svg>