<svg width="20" height="20" viewBox="0 0 20 20" fill="#4F5052" xmlns="http://www.w3.org/2000/svg">
    <path fill-rule="evenodd" clip-rule="evenodd"
        d="M10 2.7085C10.3452 2.7085 10.625 2.98832 10.625 3.3335L10.625 9.37516L16.6667 9.37516C17.0119 9.37516 17.2917 9.65498 17.2917 10.0002C17.2917 10.3453 17.0119 10.6252 16.6667 10.6252L10.625 10.6252L10.625 16.6668C10.625 17.012 10.3452 17.2918 10 17.2918C9.65486 17.2918 9.37504 17.012 9.37504 16.6668L9.37504 10.6252L3.33337 10.6252C2.9882 10.6252 2.70837 10.3453 2.70837 10.0002C2.70837 9.65498 2.9882 9.37516 3.33337 9.37516L9.37504 9.37516L9.37504 3.3335C9.37504 2.98832 9.65486 2.7085 10 2.7085Z" />
</svg>