<svg width="20" height="20" viewBox="0 0 20 20" fill="none" xmlns="http://www.w3.org/2000/svg">
<path fill-rule="evenodd" clip-rule="evenodd" d="M14.5725 14.7924C13.8792 14.7924 13.1741 14.4541 12.1691 13.9716L7.63986 11.7968C8.09849 13.4073 8.87767 14.123 9.66907 14.6415C10.2299 15.009 10.5858 15.6123 10.6208 16.2548C10.6533 16.8498 10.4074 17.4098 9.9449 17.7915L8.70243 18.8157C8.58754 18.9106 8.44604 18.9581 8.30534 18.9582C8.16797 18.9581 8.03145 18.9131 7.9174 18.8232C5.17166 16.6457 5.18407 15.3041 5.21407 12.0618L5.21407 12.0615L5.21551 11.8984C5.21722 11.7055 5.21897 11.5084 5.22015 11.3037C5.15282 11.3162 5.094 11.3252 5.03585 11.3316C4.22085 11.425 3.45333 11.1933 2.87667 10.6799C2.24 10.1124 1.875 9.24413 1.875 8.29746L1.875 7.53745C1.875 6.59078 2.24 5.72246 2.87667 5.15496C3.45333 4.6408 4.22083 4.40994 5.04 4.50327C5.195 4.51994 5.35835 4.55656 5.68502 4.6299C6.01002 4.70323 6.32665 4.66744 6.62581 4.5241L12.1683 1.8633L12.17 1.8624C13.5025 1.2224 14.3067 0.836609 15.2567 1.15578C16.2174 1.47823 16.5532 2.18305 17.0614 3.24943L17.0617 3.24993C18.4759 6.21577 18.4759 9.61825 17.0617 12.5841L17.0614 12.5846C16.5532 13.651 16.2174 14.3558 15.2567 14.6782C15.0233 14.7566 14.7983 14.7924 14.5725 14.7924ZM6.875 10.0628C6.97316 10.0966 7.06995 10.1362 7.165 10.1816L12.7091 12.8433C13.9583 13.4424 14.4125 13.6424 14.8583 13.4924C15.2975 13.3449 15.455 13.0491 15.9333 12.0449C17.1842 9.42077 17.1842 6.40991 15.9333 3.78574C15.455 2.78157 15.2975 2.48573 14.8583 2.33823C14.4125 2.18823 13.9583 2.38825 12.7108 2.98659L12.71 2.9874L7.16667 5.6491C7.07101 5.69498 6.97368 5.73492 6.875 5.76891L6.875 10.0628ZM5.625 9.94405L5.625 5.88647C5.55383 5.87629 5.48268 5.86327 5.41166 5.84743L5.39359 5.84337C5.14105 5.78662 4.98795 5.75221 4.90165 5.74326C4.42499 5.68826 4.02498 5.80412 3.70915 6.08579C3.33831 6.41662 3.12581 6.94491 3.12581 7.53574V8.29575C3.12581 8.88658 3.33831 9.41495 3.70915 9.74578C4.02498 10.0274 4.425 10.1424 4.8975 10.0882C4.98917 10.0782 5.14835 10.0424 5.41085 9.98325C5.48216 9.96714 5.55359 9.95412 5.625 9.94405ZM8.30326 17.5248C6.463 15.9728 6.43658 15.1187 6.46238 12.2358C6.91834 13.7844 7.71066 14.8528 8.98409 15.6865C9.21409 15.8374 9.35992 16.0748 9.37325 16.3232C9.38075 16.4623 9.34824 16.6623 9.1499 16.8265L8.30326 17.5248Z" fill="#4F5052"/>
</svg>
