<svg width="12" height="12" viewBox="0 0 12 12" fill="#384EC1" xmlns="http://www.w3.org/2000/svg">
    <path fill-rule="evenodd" clip-rule="evenodd"
        d="M5.5 0.5C2.73858 0.5 0.5 2.73858 0.5 5.5C0.5 8.26142 2.73858 10.5 5.5 10.5C6.70064 10.5 7.80243 10.0768 8.66437 9.37147L10.6464 11.3536C10.8417 11.5488 11.1583 11.5488 11.3536 11.3536C11.5488 11.1583 11.5488 10.8417 11.3536 10.6464L9.37147 8.66437C10.0768 7.80243 10.5 6.70063 10.5 5.5C10.5 2.73858 8.26142 0.5 5.5 0.5ZM1.5 5.5C1.5 3.29086 3.29086 1.5 5.5 1.5C7.70914 1.5 9.5 3.29086 9.5 5.5C9.5 7.70914 7.70914 9.5 5.5 9.5C3.29086 9.5 1.5 7.70914 1.5 5.5Z" />
</svg>