<svg width="17" height="18" viewBox="0 0 17 18" fill="none" xmlns="http://www.w3.org/2000/svg">
<path fill-rule="evenodd" clip-rule="evenodd" d="M3.8757 5.28675C4.23374 5.63153 4.80349 5.62078 5.14826 5.26274L7.20001 3.13208V12.1154C7.20001 12.6125 7.60296 13.0154 8.10001 13.0154C8.59707 13.0154 9.00001 12.6125 9.00001 12.1154V3.13215L11.0517 5.26274C11.3965 5.62078 11.9662 5.63153 12.3243 5.28675C12.6823 4.94197 12.693 4.37222 12.3483 4.01418L8.74826 0.275722C8.39425 -0.0919075 7.8057 -0.0919075 7.45169 0.275722L3.85169 4.01418C3.50691 4.37222 3.51766 4.94197 3.8757 5.28675ZM14.4 12.1155C14.4 11.6184 14.8029 11.2155 15.3 11.2155C15.7971 11.2155 16.2 11.6184 16.2 12.1155V17.1001C16.2 17.5971 15.7971 18.0001 15.3 18.0001H0.9C0.402944 18.0001 0 17.5971 0 17.1001V12.1155C0 11.6184 0.402944 11.2155 0.9 11.2155C1.39706 11.2155 1.8 11.6184 1.8 12.1155V16.2001H14.4V12.1155Z" fill="#666666"/>
</svg>
