<svg width="24" height="24" viewBox="0 0 24 24" fill="currentColor" xmlns="http://www.w3.org/2000/svg">
    <path fill-rule="evenodd" clip-rule="evenodd"
        d="M8.14286 3.64706L5.22076 2.78225L3 2.125L4.26635 4.0641L8.13072 9.98141C8.04542 10.3066 8 10.648 8 11C8 13.21 9.79 15 12 15C14.21 15 16 13.21 16 11C16 10.648 15.9546 10.3066 15.8693 9.98141L19.7337 4.0641L21 2.125L18.7792 2.78225L15.8571 3.64706L12 1L8.14286 3.64706ZM12 7C13.2392 7 14.3463 7.56279 15.0799 8.44685L17.5129 4.72134L16.2828 5.08539L15.5976 5.28819L15.0084 4.88383L12 2.81925L8.99162 4.88383L8.40241 5.28819L7.71718 5.08539L6.48711 4.72134L8.92009 8.44685C9.65366 7.56279 10.7608 7 12 7ZM4 20C4 17.34 9.33 16 12 16C14.67 16 20 17.34 20 20V22H4V20Z" />
</svg>