<svg width="18" height="18" viewBox="0 0 18 18" fill="#384EC1" xmlns="http://www.w3.org/2000/svg">
    <path fill-rule="evenodd" clip-rule="evenodd"
        d="M4.09369 5.21939C2.2733 5.7249 0.9375 7.39369 0.9375 9.375C0.9375 11.7567 2.86827 13.6875 5.25 13.6875H5.69957C6.0435 13.6875 6.21552 13.6875 6.23804 13.6589C6.24904 13.645 6.2519 13.6379 6.25374 13.6203C6.2575 13.5841 6.11105 13.4417 5.81815 13.157C5.07558 12.4353 5.05872 11.2482 5.78047 10.5056C5.86968 10.3943 5.95799 10.2818 6.0464 10.1691C6.43996 9.66767 6.83553 9.16366 7.32157 8.7497C7.79357 8.34769 8.36803 8.0625 9 8.0625C9.63197 8.0625 10.2064 8.34769 10.6784 8.7497C11.1645 9.16366 11.56 9.66767 11.9536 10.1691C12.042 10.2818 12.1303 10.3943 12.2195 10.5056C12.9413 11.2482 12.9244 12.4353 12.1819 13.157L12.1818 13.157C11.8889 13.4417 11.7425 13.5841 11.7463 13.6203C11.7481 13.6379 11.751 13.645 11.762 13.6589C11.7845 13.6875 11.9565 13.6875 12.3004 13.6875H13.125C15.2996 13.6875 17.0625 11.9246 17.0625 9.75C17.0625 7.89638 15.7817 6.34192 14.0567 5.92339C13.8742 5.8791 13.7829 5.85695 13.736 5.80371C13.6892 5.75047 13.6789 5.65844 13.6584 5.47443C13.3971 3.13299 11.4112 1.3125 9 1.3125C6.80754 1.3125 4.96704 2.8174 4.45448 4.85087C4.41743 4.99788 4.3989 5.07138 4.35654 5.11477C4.31418 5.15816 4.24068 5.17857 4.09369 5.21939ZM9.00439 16.6875C9.41861 16.6875 9.75439 16.3517 9.75439 15.9375V12.5625L10.1913 12.5625C10.323 12.5626 10.4848 12.5627 10.6171 12.5461L10.6196 12.5458C10.7144 12.534 11.1465 12.4801 11.3522 12.0559C11.5585 11.6308 11.332 11.2557 11.283 11.1746L11.2812 11.1715C11.212 11.0568 11.1114 10.9286 11.0287 10.8232L11.0109 10.8005C10.7899 10.5186 10.5034 10.1555 10.2181 9.86222C10.0757 9.71589 9.91277 9.56496 9.73959 9.44582C9.58565 9.33992 9.323 9.18747 9 9.18747C8.677 9.18747 8.41436 9.33992 8.26041 9.44582C8.08723 9.56496 7.92428 9.71589 7.78191 9.86222C7.49658 10.1555 7.21011 10.5186 6.98914 10.8005L6.97134 10.8232C6.88858 10.9286 6.78797 11.0568 6.71881 11.1715L6.71698 11.1746C6.66799 11.2557 6.44154 11.6308 6.64776 12.0559C6.85353 12.4801 7.28556 12.534 7.38039 12.5458L7.3829 12.5461C7.51523 12.5627 7.67697 12.5626 7.8087 12.5625L8.2544 12.5625L8.25439 15.9375C8.25439 16.3517 8.59018 16.6875 9.00439 16.6875Z" />
</svg>