<svg width="20" height="20" viewBox="0 0 20 20" fill="#3D3F42" fill-rule="evenodd" clip-rule="evenodd"
    xmlns="http://www.w3.org/2000/svg">
    <path
        d="M4.04449 9.6538C4.48462 9.03662 5.26162 8.07095 6.29561 7.26373C7.33062 6.45571 8.5876 5.8335 10 5.8335C11.4125 5.8335 12.6695 6.4557 13.7045 7.26372C14.7385 8.07095 15.5155 9.03662 15.9556 9.6538C16.0645 9.80648 16.1163 9.88103 16.1472 9.94038C16.1668 9.9781 16.1668 9.98844 16.1667 9.99857L16.1667 10.0002L16.1667 10.0018C16.1668 10.0119 16.1668 10.0222 16.1472 10.0599C16.1163 10.1193 16.0645 10.1938 15.9556 10.3465C15.5155 10.9637 14.7385 11.9294 13.7045 12.7366C12.6695 13.5446 11.4125 14.1668 10 14.1668C8.5876 14.1668 7.33062 13.5446 6.29561 12.7366C5.26163 11.9294 4.48462 10.9637 4.04449 10.3465C3.93561 10.1939 3.88379 10.1193 3.8529 10.0599C3.83326 10.0222 3.83331 10.0119 3.83337 10.0018L3.83337 10.0002L3.83337 9.99857C3.83331 9.98844 3.83326 9.9781 3.8529 9.94038C3.88379 9.88103 3.93561 9.80648 4.04449 9.6538ZM10 4.8335C8.28633 4.8335 6.81734 5.58777 5.68025 6.47549C4.54213 7.364 3.70088 8.41332 3.23031 9.07318L3.19484 9.12265C3.02606 9.35737 2.83337 9.62536 2.83337 10.0002C2.83337 10.375 3.02606 10.643 3.19484 10.8777L3.23031 10.9272C3.70088 11.587 4.54213 12.6363 5.68025 13.5248C6.81734 14.4126 8.28633 15.1668 10 15.1668C11.7137 15.1668 13.1827 14.4126 14.3198 13.5248C15.458 12.6363 16.2992 11.587 16.7698 10.9272L16.8052 10.8777C16.974 10.643 17.1667 10.375 17.1667 10.0002C17.1667 9.62536 16.974 9.35737 16.8052 9.12265L16.7698 9.07317C16.2992 8.41332 15.458 7.364 14.3198 6.47549C13.1827 5.58777 11.7137 4.8335 10 4.8335ZM8.50004 10.0002C8.50004 10.8286 9.17161 11.5002 10 11.5002C10.8285 11.5002 11.5 10.8286 11.5 10.0002C11.5 9.17174 10.8285 8.50016 10 8.50016C9.17161 8.50016 8.50004 9.17174 8.50004 10.0002ZM10 12.5002C8.61933 12.5002 7.50004 11.3809 7.50004 10.0002C7.50004 8.61945 8.61933 7.50016 10 7.50016C11.3808 7.50016 12.5 8.61945 12.5 10.0002C12.5 11.3809 11.3808 12.5002 10 12.5002Z" />
</svg>